<!-- (c) Carrd Inc. All rights reserved. All logos and trademarks are property of their respective owners. -->
<svg xmlns="http://www.w3.org/2000/svg" id="icon">
<path d="M31.4,23.4c-0.2,0-0.4-0.1-0.6-0.1C31,23.4,31.2,23.4,31.4,23.4z M30.8,23.3c-0.1,0-0.2,0-0.3,0 C30.6,23.3,30.7,23.3,30.8,23.3z M12.1,18.7c0,0.1,0,0.2,0,0.3C12.1,18.9,12.1,18.8,12.1,18.7z M12.1,18.6c0-0.1,0-0.2,0-0.3 C12.1,18.4,12.1,18.5,12.1,18.6z M12.1,18.3c0-0.1,0-0.2,0-0.3C12.2,18.1,12.1,18.2,12.1,18.3z M12.2,18c0-0.1,0-0.2,0-0.2 C12.2,17.8,12.2,17.9,12.2,18z M12.2,17.7c0-0.1,0-0.2,0.1-0.3C12.3,17.5,12.2,17.6,12.2,17.7z M12.3,17.3c0-0.1,0-0.1,0.1-0.2 C12.3,17.2,12.3,17.3,12.3,17.3z M12.4,17c0-0.1,0.1-0.2,0.1-0.3C12.4,16.9,12.4,17,12.4,17z M12.5,16.7c0-0.1,0.1-0.1,0.1-0.2 C12.5,16.6,12.5,16.7,12.5,16.7z M12.6,16.4c0-0.1,0.1-0.2,0.1-0.3C12.7,16.3,12.6,16.4,12.6,16.4z M12.7,16.2 c0-0.1,0.1-0.1,0.1-0.2C12.8,16,12.7,16.1,12.7,16.2z M12.8,15.9c0-0.1,0.1-0.2,0.1-0.2C12.9,15.7,12.9,15.8,12.8,15.9z M35.5,16.9 c-1.1,0.8-2.3,1.3-3.6,1.5c0,0,0,0,0,0c0,0,0,0,0,0c-0.1-0.6-0.3-1.2-0.5-1.8c-0.4,0.1-0.8,0.1-1.2,0.1c-2.7,0-3.7-0.9-4.9-1.9 c-1.1-1-2.5-2.2-5.1-2.2h-1.5c-1.9,0-3.5,0.7-4.8,1.9c-0.4,0.4-0.7,0.8-0.9,1.2c0,0.1-0.1,0.2-0.1,0.2c0,0,0,0,0,0.1 c0,0.1-0.1,0.2-0.1,0.2c0,0,0,0,0,0c0,0.1-0.1,0.2-0.1,0.3c0,0,0,0,0,0.1c0,0.1-0.1,0.2-0.1,0.2c0,0,0,0,0,0c0,0.1-0.1,0.2-0.1,0.3 c0,0,0,0,0,0c0,0.1,0,0.2-0.1,0.2c0,0,0,0,0,0.1c0,0.1,0,0.2-0.1,0.3c0,0,0,0,0,0c0,0.1,0,0.2,0,0.3c0,0,0,0,0,0.1 c0,0.1,0,0.2,0,0.3c0,0,0,0,0,0c0,0.1,0,0.2,0,0.3c0,0,0,0,0,0.1c0,0.1,0,0.2,0,0.3V21c0,1.8,0.7,3.4,1.8,4.5 c1.2,1.2,2.9,1.9,4.8,1.9h1.5c2.6,0,4-1.2,5.1-2.2c1.2-1,2.2-1.9,4.9-1.9c0.4,0,0.8,0,1.2,0.1c0,0,0,0,0,0c-0.2,0.4-0.4,0.8-0.6,1.2 l-1.8,3.1c-1.7,2.8-4.7,4.6-8,4.6h-3.6c-3.3,0-6.4-1.7-8-4.6l-1.8-3.1c-1.7-2.8-1.7-6.3,0-9.2l1.8-3.1c1.7-2.8,4.7-4.6,8-4.6H21 c3.3,0,6.4,1.7,8,4.6l1.8,3.1c0.2,0.4,0.4,0.8,0.6,1.2c0,0,0,0,0,0c0,0,0,0,0,0c0,0,0,0,0,0c1.1-0.2,2.1-0.6,3-1.2c0,0,0,0,0,0 c-0.5-1.6-1.2-3.1-2.2-4.4c-1-1.3-2.1-2.5-3.5-3.5c-2.8-2.1-6.1-3.1-9.5-3.1c-2.2,0-4.2,0.4-6.2,1.2c-1.9,0.8-3.6,1.9-5.1,3.4 s-2.6,3.1-3.4,5c-0.8,1.9-1.3,4-1.3,6.1c0,2.1,0.4,4.2,1.3,6.1c0.8,1.9,2,3.6,3.4,5c1.5,1.4,3.2,2.6,5.1,3.4c2,0.8,4,1.2,6.2,1.2 c3.5,0,6.8-1.1,9.5-3.1c1.3-1,2.5-2.2,3.5-3.5c1-1.4,1.7-2.9,2.2-4.4c0,0,0,0,0,0c-0.9-0.6-1.9-1-3-1.2c0,0,0,0,0,0c0,0,0,0,0,0 c0.2-0.6,0.4-1.2,0.5-1.8c0,0,0,0,0,0c-0.6-0.1-1.2-0.2-1.8-0.2c-6.2,0-5.9,4.1-10,4.1h-1.5c-2.8,0-4.7-2-4.7-4.5V19 c0-2.6,1.9-4.5,4.7-4.5h1.5c4.1,0,3.8,4.1,10,4.1c0.6,0,1.2-0.1,1.8-0.2c0.2,1.1,0.2,2.1,0,3.2c1.3,0.2,2.5,0.7,3.6,1.5 c1,0.7,0.8,1.6,0.7,2.1c-2.2,7.2-9,12.4-17,12.4C9.3,37.6,1.3,29.7,1.3,20s8-17.6,17.8-17.6c8,0,14.8,5.2,17,12.4 C36.4,15.3,36.6,16.1,35.5,16.9z" fill="currentColor"/>
</svg>